<mxfile host="app.diagrams.net" agent="Mozilla/5.0 (Windows NT 10.0; Win64; x64) AppleWebKit/537.36 (KHTML, like Gecko) Chrome/129.0.0.0 Safari/537.36" version="24.7.17" pages="2">
  <diagram name="ER Diagram" id="XWC8GZy041o-p9lCCxzm">
    <mxGraphModel dx="1290" dy="530" grid="1" gridSize="10" guides="1" tooltips="1" connect="1" arrows="1" fold="1" page="1" pageScale="1" pageWidth="827" pageHeight="1169" math="0" shadow="0">
      <root>
        <mxCell id="0" />
        <mxCell id="1" parent="0" />
        <mxCell id="tiBaR8bLU61VSOc8VPE0-68" value="Item" style="swimlane;fontStyle=0;childLayout=stackLayout;horizontal=1;startSize=26;fillColor=#dae8fc;horizontalStack=0;resizeParent=1;resizeParentMax=0;resizeLast=0;collapsible=1;marginBottom=0;strokeColor=#6c8ebf;" parent="1" vertex="1">
          <mxGeometry x="130" y="120" width="140" height="104" as="geometry" />
        </mxCell>
        <mxCell id="tiBaR8bLU61VSOc8VPE0-69" value="+ id: Long" style="text;strokeColor=none;fillColor=none;align=left;verticalAlign=top;spacingLeft=4;spacingRight=4;overflow=hidden;rotatable=0;points=[[0,0.5],[1,0.5]];portConstraint=eastwest;" parent="tiBaR8bLU61VSOc8VPE0-68" vertex="1">
          <mxGeometry y="26" width="140" height="26" as="geometry" />
        </mxCell>
        <mxCell id="tiBaR8bLU61VSOc8VPE0-70" value="+ name: String" style="text;strokeColor=none;fillColor=none;align=left;verticalAlign=top;spacingLeft=4;spacingRight=4;overflow=hidden;rotatable=0;points=[[0,0.5],[1,0.5]];portConstraint=eastwest;" parent="tiBaR8bLU61VSOc8VPE0-68" vertex="1">
          <mxGeometry y="52" width="140" height="26" as="geometry" />
        </mxCell>
        <mxCell id="tiBaR8bLU61VSOc8VPE0-71" value="+ description: String" style="text;strokeColor=none;fillColor=none;align=left;verticalAlign=top;spacingLeft=4;spacingRight=4;overflow=hidden;rotatable=0;points=[[0,0.5],[1,0.5]];portConstraint=eastwest;" parent="tiBaR8bLU61VSOc8VPE0-68" vertex="1">
          <mxGeometry y="78" width="140" height="26" as="geometry" />
        </mxCell>
        <mxCell id="tiBaR8bLU61VSOc8VPE0-72" value="Restaurant" style="swimlane;fontStyle=0;childLayout=stackLayout;horizontal=1;startSize=26;fillColor=#d5e8d4;horizontalStack=0;resizeParent=1;resizeParentMax=0;resizeLast=0;collapsible=1;marginBottom=0;strokeColor=#82b366;" parent="1" vertex="1">
          <mxGeometry x="740" y="100" width="170" height="182" as="geometry" />
        </mxCell>
        <mxCell id="tiBaR8bLU61VSOc8VPE0-73" value="+ id: Long" style="text;strokeColor=none;fillColor=none;align=left;verticalAlign=top;spacingLeft=4;spacingRight=4;overflow=hidden;rotatable=0;points=[[0,0.5],[1,0.5]];portConstraint=eastwest;" parent="tiBaR8bLU61VSOc8VPE0-72" vertex="1">
          <mxGeometry y="26" width="170" height="26" as="geometry" />
        </mxCell>
        <mxCell id="tiBaR8bLU61VSOc8VPE0-74" value="+ name: String" style="text;strokeColor=none;fillColor=none;align=left;verticalAlign=top;spacingLeft=4;spacingRight=4;overflow=hidden;rotatable=0;points=[[0,0.5],[1,0.5]];portConstraint=eastwest;" parent="tiBaR8bLU61VSOc8VPE0-72" vertex="1">
          <mxGeometry y="52" width="170" height="26" as="geometry" />
        </mxCell>
        <mxCell id="tiBaR8bLU61VSOc8VPE0-75" value="+ maxCapacity: Integer" style="text;strokeColor=none;fillColor=none;align=left;verticalAlign=top;spacingLeft=4;spacingRight=4;overflow=hidden;rotatable=0;points=[[0,0.5],[1,0.5]];portConstraint=eastwest;" parent="tiBaR8bLU61VSOc8VPE0-72" vertex="1">
          <mxGeometry y="78" width="170" height="26" as="geometry" />
        </mxCell>
        <mxCell id="tiBaR8bLU61VSOc8VPE0-76" value="+ currentLoad: Integer" style="text;strokeColor=none;fillColor=none;align=left;verticalAlign=top;spacingLeft=4;spacingRight=4;overflow=hidden;rotatable=0;points=[[0,0.5],[1,0.5]];portConstraint=eastwest;" parent="tiBaR8bLU61VSOc8VPE0-72" vertex="1">
          <mxGeometry y="104" width="170" height="26" as="geometry" />
        </mxCell>
        <mxCell id="tiBaR8bLU61VSOc8VPE0-77" value="+ rating: Double" style="text;strokeColor=none;fillColor=none;align=left;verticalAlign=top;spacingLeft=4;spacingRight=4;overflow=hidden;rotatable=0;points=[[0,0.5],[1,0.5]];portConstraint=eastwest;" parent="tiBaR8bLU61VSOc8VPE0-72" vertex="1">
          <mxGeometry y="130" width="170" height="26" as="geometry" />
        </mxCell>
        <mxCell id="tiBaR8bLU61VSOc8VPE0-78" value="+ version: Integer" style="text;strokeColor=none;fillColor=none;align=left;verticalAlign=top;spacingLeft=4;spacingRight=4;overflow=hidden;rotatable=0;points=[[0,0.5],[1,0.5]];portConstraint=eastwest;" parent="tiBaR8bLU61VSOc8VPE0-72" vertex="1">
          <mxGeometry y="156" width="170" height="26" as="geometry" />
        </mxCell>
        <mxCell id="tiBaR8bLU61VSOc8VPE0-113" style="edgeStyle=orthogonalEdgeStyle;rounded=0;orthogonalLoop=1;jettySize=auto;html=1;exitX=0.25;exitY=0;exitDx=0;exitDy=0;" parent="1" source="tiBaR8bLU61VSOc8VPE0-79" edge="1">
          <mxGeometry relative="1" as="geometry">
            <mxPoint x="450" y="120" as="targetPoint" />
          </mxGeometry>
        </mxCell>
        <mxCell id="tiBaR8bLU61VSOc8VPE0-79" value="RestaurantItem" style="swimlane;fontStyle=0;childLayout=stackLayout;horizontal=1;startSize=26;fillColor=#fff2cc;horizontalStack=0;resizeParent=1;resizeParentMax=0;resizeLast=0;collapsible=1;marginBottom=0;strokeColor=#d6b656;" parent="1" vertex="1">
          <mxGeometry x="440" y="130" width="140" height="78" as="geometry" />
        </mxCell>
        <mxCell id="tiBaR8bLU61VSOc8VPE0-80" value="+ id: Long" style="text;strokeColor=none;fillColor=none;align=left;verticalAlign=top;spacingLeft=4;spacingRight=4;overflow=hidden;rotatable=0;points=[[0,0.5],[1,0.5]];portConstraint=eastwest;" parent="tiBaR8bLU61VSOc8VPE0-79" vertex="1">
          <mxGeometry y="26" width="140" height="26" as="geometry" />
        </mxCell>
        <mxCell id="tiBaR8bLU61VSOc8VPE0-81" value="+ price: Double" style="text;strokeColor=none;fillColor=none;align=left;verticalAlign=top;spacingLeft=4;spacingRight=4;overflow=hidden;rotatable=0;points=[[0,0.5],[1,0.5]];portConstraint=eastwest;" parent="tiBaR8bLU61VSOc8VPE0-79" vertex="1">
          <mxGeometry y="52" width="140" height="26" as="geometry" />
        </mxCell>
        <mxCell id="tiBaR8bLU61VSOc8VPE0-82" value="Order" style="swimlane;fontStyle=0;childLayout=stackLayout;horizontal=1;startSize=26;fillColor=#ffe6cc;horizontalStack=0;resizeParent=1;resizeParentMax=0;resizeLast=0;collapsible=1;marginBottom=0;strokeColor=#d79b00;" parent="1" vertex="1">
          <mxGeometry x="130" y="320" width="180" height="130" as="geometry" />
        </mxCell>
        <mxCell id="tiBaR8bLU61VSOc8VPE0-83" value="+ id: Long" style="text;strokeColor=none;fillColor=none;align=left;verticalAlign=top;spacingLeft=4;spacingRight=4;overflow=hidden;rotatable=0;points=[[0,0.5],[1,0.5]];portConstraint=eastwest;" parent="tiBaR8bLU61VSOc8VPE0-82" vertex="1">
          <mxGeometry y="26" width="180" height="26" as="geometry" />
        </mxCell>
        <mxCell id="tiBaR8bLU61VSOc8VPE0-84" value="+ orderTime: LocalDateTime" style="text;strokeColor=none;fillColor=none;align=left;verticalAlign=top;spacingLeft=4;spacingRight=4;overflow=hidden;rotatable=0;points=[[0,0.5],[1,0.5]];portConstraint=eastwest;" parent="tiBaR8bLU61VSOc8VPE0-82" vertex="1">
          <mxGeometry y="52" width="180" height="26" as="geometry" />
        </mxCell>
        <mxCell id="tiBaR8bLU61VSOc8VPE0-85" value="+ status: OrderStatus" style="text;strokeColor=none;fillColor=none;align=left;verticalAlign=top;spacingLeft=4;spacingRight=4;overflow=hidden;rotatable=0;points=[[0,0.5],[1,0.5]];portConstraint=eastwest;" parent="tiBaR8bLU61VSOc8VPE0-82" vertex="1">
          <mxGeometry y="78" width="180" height="26" as="geometry" />
        </mxCell>
        <mxCell id="tiBaR8bLU61VSOc8VPE0-86" value="+ customerId: int" style="text;strokeColor=none;fillColor=none;align=left;verticalAlign=top;spacingLeft=4;spacingRight=4;overflow=hidden;rotatable=0;points=[[0,0.5],[1,0.5]];portConstraint=eastwest;" parent="tiBaR8bLU61VSOc8VPE0-82" vertex="1">
          <mxGeometry y="104" width="180" height="26" as="geometry" />
        </mxCell>
        <mxCell id="tiBaR8bLU61VSOc8VPE0-87" value="OrderItem" style="swimlane;fontStyle=0;childLayout=stackLayout;horizontal=1;startSize=26;fillColor=#e1d5e7;horizontalStack=0;resizeParent=1;resizeParentMax=0;resizeLast=0;collapsible=1;marginBottom=0;strokeColor=#9673a6;" parent="1" vertex="1">
          <mxGeometry x="410" y="330" width="140" height="78" as="geometry" />
        </mxCell>
        <mxCell id="tiBaR8bLU61VSOc8VPE0-88" value="+ id: Long" style="text;strokeColor=none;fillColor=none;align=left;verticalAlign=top;spacingLeft=4;spacingRight=4;overflow=hidden;rotatable=0;points=[[0,0.5],[1,0.5]];portConstraint=eastwest;" parent="tiBaR8bLU61VSOc8VPE0-87" vertex="1">
          <mxGeometry y="26" width="140" height="26" as="geometry" />
        </mxCell>
        <mxCell id="tiBaR8bLU61VSOc8VPE0-89" value="+ quantity: Integer" style="text;strokeColor=none;fillColor=none;align=left;verticalAlign=top;spacingLeft=4;spacingRight=4;overflow=hidden;rotatable=0;points=[[0,0.5],[1,0.5]];portConstraint=eastwest;" parent="tiBaR8bLU61VSOc8VPE0-87" vertex="1">
          <mxGeometry y="52" width="140" height="26" as="geometry" />
        </mxCell>
        <mxCell id="tiBaR8bLU61VSOc8VPE0-90" value="OrderItemFulfillment" style="swimlane;fontStyle=0;childLayout=stackLayout;horizontal=1;startSize=26;fillColor=#f8cecc;horizontalStack=0;resizeParent=1;resizeParentMax=0;resizeLast=0;collapsible=1;marginBottom=0;strokeColor=#b85450;" parent="1" vertex="1">
          <mxGeometry x="690" y="333" width="180" height="104" as="geometry" />
        </mxCell>
        <mxCell id="tiBaR8bLU61VSOc8VPE0-91" value="+ id: Long" style="text;strokeColor=none;fillColor=none;align=left;verticalAlign=top;spacingLeft=4;spacingRight=4;overflow=hidden;rotatable=0;points=[[0,0.5],[1,0.5]];portConstraint=eastwest;" parent="tiBaR8bLU61VSOc8VPE0-90" vertex="1">
          <mxGeometry y="26" width="180" height="26" as="geometry" />
        </mxCell>
        <mxCell id="tiBaR8bLU61VSOc8VPE0-92" value="+ quantityFulfilled: Integer" style="text;strokeColor=none;fillColor=none;align=left;verticalAlign=top;spacingLeft=4;spacingRight=4;overflow=hidden;rotatable=0;points=[[0,0.5],[1,0.5]];portConstraint=eastwest;" parent="tiBaR8bLU61VSOc8VPE0-90" vertex="1">
          <mxGeometry y="52" width="180" height="26" as="geometry" />
        </mxCell>
        <mxCell id="tiBaR8bLU61VSOc8VPE0-93" value="+ pricePerUnit: Double" style="text;strokeColor=none;fillColor=none;align=left;verticalAlign=top;spacingLeft=4;spacingRight=4;overflow=hidden;rotatable=0;points=[[0,0.5],[1,0.5]];portConstraint=eastwest;" parent="tiBaR8bLU61VSOc8VPE0-90" vertex="1">
          <mxGeometry y="78" width="180" height="26" as="geometry" />
        </mxCell>
        <mxCell id="tiBaR8bLU61VSOc8VPE0-112" value="Entity Relationship Diagram for Food Order System" style="text;html=1;strokeColor=none;fillColor=none;align=center;verticalAlign=middle;whiteSpace=wrap;rounded=0;fontSize=16;fontStyle=1" parent="1" vertex="1">
          <mxGeometry x="130" y="50" width="580" height="30" as="geometry" />
        </mxCell>
        <mxCell id="tiBaR8bLU61VSOc8VPE0-119" value="" style="edgeStyle=entityRelationEdgeStyle;fontSize=12;html=1;endArrow=ERoneToMany;rounded=0;exitX=1;exitY=0.169;exitDx=0;exitDy=0;exitPerimeter=0;entryX=-0.026;entryY=0.846;entryDx=0;entryDy=0;entryPerimeter=0;" parent="1" source="tiBaR8bLU61VSOc8VPE0-70" target="tiBaR8bLU61VSOc8VPE0-80" edge="1">
          <mxGeometry width="100" height="100" relative="1" as="geometry">
            <mxPoint x="290" y="300" as="sourcePoint" />
            <mxPoint x="390" y="200" as="targetPoint" />
            <Array as="points">
              <mxPoint x="150" y="300" />
              <mxPoint x="340" y="250" />
            </Array>
          </mxGeometry>
        </mxCell>
        <mxCell id="tiBaR8bLU61VSOc8VPE0-121" value="" style="edgeStyle=entityRelationEdgeStyle;fontSize=12;html=1;endArrow=ERoneToMany;rounded=0;exitX=-0.007;exitY=0.246;exitDx=0;exitDy=0;exitPerimeter=0;entryX=1.026;entryY=0.123;entryDx=0;entryDy=0;entryPerimeter=0;" parent="1" source="tiBaR8bLU61VSOc8VPE0-75" target="tiBaR8bLU61VSOc8VPE0-81" edge="1">
          <mxGeometry width="100" height="100" relative="1" as="geometry">
            <mxPoint x="280" y="186" as="sourcePoint" />
            <mxPoint x="446" y="188" as="targetPoint" />
            <Array as="points">
              <mxPoint x="160" y="310" />
              <mxPoint x="350" y="260" />
            </Array>
          </mxGeometry>
        </mxCell>
        <mxCell id="tiBaR8bLU61VSOc8VPE0-122" style="edgeStyle=orthogonalEdgeStyle;rounded=0;orthogonalLoop=1;jettySize=auto;html=1;exitX=0.5;exitY=0;exitDx=0;exitDy=0;entryX=0.594;entryY=0.041;entryDx=0;entryDy=0;entryPerimeter=0;" parent="1" source="tiBaR8bLU61VSOc8VPE0-87" target="tiBaR8bLU61VSOc8VPE0-87" edge="1">
          <mxGeometry relative="1" as="geometry" />
        </mxCell>
        <mxCell id="tiBaR8bLU61VSOc8VPE0-123" value="" style="edgeStyle=entityRelationEdgeStyle;fontSize=12;html=1;endArrow=ERoneToMany;rounded=0;exitX=0;exitY=0.5;exitDx=0;exitDy=0;entryX=1.004;entryY=0.862;entryDx=0;entryDy=0;entryPerimeter=0;" parent="1" source="tiBaR8bLU61VSOc8VPE0-88" target="tiBaR8bLU61VSOc8VPE0-83" edge="1">
          <mxGeometry width="100" height="100" relative="1" as="geometry">
            <mxPoint x="445" y="300" as="sourcePoint" />
            <mxPoint x="290" y="301" as="targetPoint" />
            <Array as="points">
              <mxPoint x="-134" y="426" />
              <mxPoint x="56" y="376" />
            </Array>
          </mxGeometry>
        </mxCell>
        <mxCell id="tiBaR8bLU61VSOc8VPE0-124" value="" style="edgeStyle=entityRelationEdgeStyle;fontSize=12;html=1;endArrow=ERoneToMany;rounded=0;entryX=1.004;entryY=-0.031;entryDx=0;entryDy=0;entryPerimeter=0;" parent="1" target="tiBaR8bLU61VSOc8VPE0-92" edge="1">
          <mxGeometry width="100" height="100" relative="1" as="geometry">
            <mxPoint x="910" y="240" as="sourcePoint" />
            <mxPoint x="820" y="378" as="targetPoint" />
            <Array as="points">
              <mxPoint x="375" y="436" />
              <mxPoint x="840" y="290" />
              <mxPoint x="860" y="280" />
              <mxPoint x="850" y="280" />
              <mxPoint x="565" y="386" />
            </Array>
          </mxGeometry>
        </mxCell>
        <mxCell id="tiBaR8bLU61VSOc8VPE0-125" value="" style="edgeStyle=entityRelationEdgeStyle;fontSize=12;html=1;endArrow=ERoneToMany;rounded=0;entryX=-0.018;entryY=-0.054;entryDx=0;entryDy=0;entryPerimeter=0;" parent="1" target="tiBaR8bLU61VSOc8VPE0-92" edge="1">
          <mxGeometry width="100" height="100" relative="1" as="geometry">
            <mxPoint x="550" y="384" as="sourcePoint" />
            <mxPoint x="710" y="382" as="targetPoint" />
            <Array as="points">
              <mxPoint x="424" y="504" />
              <mxPoint x="614" y="454" />
            </Array>
          </mxGeometry>
        </mxCell>
      </root>
    </mxGraphModel>
  </diagram>
  <diagram id="I1jCOq6U2B4N9J9jcG4b" name="HLD">
    <mxGraphModel dx="1290" dy="530" grid="1" gridSize="10" guides="1" tooltips="1" connect="1" arrows="1" fold="1" page="1" pageScale="1" pageWidth="827" pageHeight="1169" math="0" shadow="0">
      <root>
        <mxCell id="0" />
        <mxCell id="1" parent="0" />
        <mxCell id="xatf3qAbXo9EuCDJVr3o-1" value="Load Balancer" style="rounded=1;whiteSpace=wrap;html=1;fillColor=#dae8fc;strokeColor=#6c8ebf;" parent="1" vertex="1">
          <mxGeometry x="480" y="40" width="120" height="60" as="geometry" />
        </mxCell>
        <mxCell id="Fnj35fjm2CkwJjKrpzjC-12" style="edgeStyle=orthogonalEdgeStyle;rounded=0;orthogonalLoop=1;jettySize=auto;html=1;" parent="1" source="xatf3qAbXo9EuCDJVr3o-2" target="Fnj35fjm2CkwJjKrpzjC-11" edge="1">
          <mxGeometry relative="1" as="geometry" />
        </mxCell>
        <mxCell id="xatf3qAbXo9EuCDJVr3o-2" value="API Gateway" style="rounded=1;whiteSpace=wrap;html=1;fillColor=#d5e8d4;strokeColor=#82b366;" parent="1" vertex="1">
          <mxGeometry x="480" y="140" width="120" height="60" as="geometry" />
        </mxCell>
        <mxCell id="xatf3qAbXo9EuCDJVr3o-3" value="Restaurant Service" style="rounded=1;whiteSpace=wrap;html=1;fillColor=#ffe6cc;strokeColor=#d79b00;" parent="1" vertex="1">
          <mxGeometry x="280" y="240" width="120" height="60" as="geometry" />
        </mxCell>
        <mxCell id="xatf3qAbXo9EuCDJVr3o-4" value="Order Service" style="rounded=1;whiteSpace=wrap;html=1;fillColor=#ffe6cc;strokeColor=#d79b00;" parent="1" vertex="1">
          <mxGeometry x="480" y="240" width="120" height="60" as="geometry" />
        </mxCell>
        <mxCell id="xatf3qAbXo9EuCDJVr3o-5" value="Item Service" style="rounded=1;whiteSpace=wrap;html=1;fillColor=#ffe6cc;strokeColor=#d79b00;" parent="1" vertex="1">
          <mxGeometry x="680" y="240" width="120" height="60" as="geometry" />
        </mxCell>
        <mxCell id="Fnj35fjm2CkwJjKrpzjC-19" style="edgeStyle=orthogonalEdgeStyle;rounded=0;orthogonalLoop=1;jettySize=auto;html=1;" parent="1" source="xatf3qAbXo9EuCDJVr3o-6" target="Fnj35fjm2CkwJjKrpzjC-18" edge="1">
          <mxGeometry relative="1" as="geometry">
            <Array as="points">
              <mxPoint x="1079" y="470" />
            </Array>
          </mxGeometry>
        </mxCell>
        <mxCell id="xatf3qAbXo9EuCDJVr3o-6" value="Order Processing Service" style="rounded=1;whiteSpace=wrap;html=1;fillColor=#ffe6cc;strokeColor=#d79b00;" parent="1" vertex="1">
          <mxGeometry x="819" y="450" width="120" height="60" as="geometry" />
        </mxCell>
        <mxCell id="Fnj35fjm2CkwJjKrpzjC-23" style="edgeStyle=orthogonalEdgeStyle;rounded=0;orthogonalLoop=1;jettySize=auto;html=1;" parent="1" edge="1">
          <mxGeometry relative="1" as="geometry">
            <mxPoint x="730" y="610" as="sourcePoint" />
            <mxPoint x="580" y="610.0666666666666" as="targetPoint" />
          </mxGeometry>
        </mxCell>
        <mxCell id="xatf3qAbXo9EuCDJVr3o-12" value="" style="endArrow=classic;html=1;exitX=0.5;exitY=1;exitDx=0;exitDy=0;entryX=0.5;entryY=0;entryDx=0;entryDy=0;" parent="1" source="xatf3qAbXo9EuCDJVr3o-1" target="xatf3qAbXo9EuCDJVr3o-2" edge="1">
          <mxGeometry width="50" height="50" relative="1" as="geometry">
            <mxPoint x="560" y="420" as="sourcePoint" />
            <mxPoint x="610" y="370" as="targetPoint" />
          </mxGeometry>
        </mxCell>
        <mxCell id="xatf3qAbXo9EuCDJVr3o-13" value="" style="endArrow=classic;html=1;exitX=0.5;exitY=1;exitDx=0;exitDy=0;entryX=0.5;entryY=0;entryDx=0;entryDy=0;" parent="1" source="xatf3qAbXo9EuCDJVr3o-2" target="xatf3qAbXo9EuCDJVr3o-4" edge="1">
          <mxGeometry width="50" height="50" relative="1" as="geometry">
            <mxPoint x="560" y="420" as="sourcePoint" />
            <mxPoint x="610" y="370" as="targetPoint" />
          </mxGeometry>
        </mxCell>
        <mxCell id="xatf3qAbXo9EuCDJVr3o-14" value="" style="endArrow=classic;html=1;exitX=0;exitY=0.5;exitDx=0;exitDy=0;entryX=0.5;entryY=0;entryDx=0;entryDy=0;" parent="1" source="xatf3qAbXo9EuCDJVr3o-2" target="xatf3qAbXo9EuCDJVr3o-3" edge="1">
          <mxGeometry width="50" height="50" relative="1" as="geometry">
            <mxPoint x="560" y="420" as="sourcePoint" />
            <mxPoint x="610" y="370" as="targetPoint" />
          </mxGeometry>
        </mxCell>
        <mxCell id="xatf3qAbXo9EuCDJVr3o-15" value="" style="endArrow=classic;html=1;exitX=1;exitY=0.5;exitDx=0;exitDy=0;entryX=0.5;entryY=0;entryDx=0;entryDy=0;" parent="1" source="xatf3qAbXo9EuCDJVr3o-2" target="xatf3qAbXo9EuCDJVr3o-5" edge="1">
          <mxGeometry width="50" height="50" relative="1" as="geometry">
            <mxPoint x="560" y="420" as="sourcePoint" />
            <mxPoint x="610" y="370" as="targetPoint" />
          </mxGeometry>
        </mxCell>
        <mxCell id="xatf3qAbXo9EuCDJVr3o-21" value="" style="endArrow=classic;html=1;exitX=0.5;exitY=1;exitDx=0;exitDy=0;" parent="1" source="xatf3qAbXo9EuCDJVr3o-4" edge="1">
          <mxGeometry width="50" height="50" relative="1" as="geometry">
            <mxPoint x="560" y="420" as="sourcePoint" />
            <mxPoint x="540" y="580" as="targetPoint" />
          </mxGeometry>
        </mxCell>
        <mxCell id="xatf3qAbXo9EuCDJVr3o-26" value="FOOD ORDER MANAGEMENT SYSTEM" style="text;html=1;strokeColor=none;fillColor=none;align=center;verticalAlign=middle;whiteSpace=wrap;rounded=0;fontSize=16;fontStyle=1" parent="1" vertex="1">
          <mxGeometry x="260" y="10" width="520" height="20" as="geometry" />
        </mxCell>
        <mxCell id="Fnj35fjm2CkwJjKrpzjC-4" value="Order Service" style="rounded=1;whiteSpace=wrap;html=1;fillColor=#ffe6cc;strokeColor=#d79b00;" parent="1" vertex="1">
          <mxGeometry x="490" y="250" width="120" height="60" as="geometry" />
        </mxCell>
        <mxCell id="Fnj35fjm2CkwJjKrpzjC-5" value="Item Service" style="rounded=1;whiteSpace=wrap;html=1;fillColor=#ffe6cc;strokeColor=#d79b00;" parent="1" vertex="1">
          <mxGeometry x="500" y="260" width="120" height="60" as="geometry" />
        </mxCell>
        <mxCell id="Fnj35fjm2CkwJjKrpzjC-6" value="Item Service" style="rounded=1;whiteSpace=wrap;html=1;fillColor=#ffe6cc;strokeColor=#d79b00;" parent="1" vertex="1">
          <mxGeometry x="690" y="250" width="120" height="60" as="geometry" />
        </mxCell>
        <mxCell id="Fnj35fjm2CkwJjKrpzjC-7" value="Order Service" style="rounded=1;whiteSpace=wrap;html=1;fillColor=#ffe6cc;strokeColor=#d79b00;" parent="1" vertex="1">
          <mxGeometry x="700" y="260" width="120" height="60" as="geometry" />
        </mxCell>
        <mxCell id="Fnj35fjm2CkwJjKrpzjC-8" value="Restaurant Service" style="rounded=1;whiteSpace=wrap;html=1;fillColor=#ffe6cc;strokeColor=#d79b00;" parent="1" vertex="1">
          <mxGeometry x="290" y="250" width="120" height="60" as="geometry" />
        </mxCell>
        <mxCell id="Fnj35fjm2CkwJjKrpzjC-22" style="edgeStyle=orthogonalEdgeStyle;rounded=0;orthogonalLoop=1;jettySize=auto;html=1;exitX=0.75;exitY=1;exitDx=0;exitDy=0;" parent="1" source="Fnj35fjm2CkwJjKrpzjC-9" edge="1">
          <mxGeometry relative="1" as="geometry">
            <mxPoint x="390" y="580" as="targetPoint" />
          </mxGeometry>
        </mxCell>
        <mxCell id="Fnj35fjm2CkwJjKrpzjC-9" value="Restaurant Service" style="rounded=1;whiteSpace=wrap;html=1;fillColor=#ffe6cc;strokeColor=#d79b00;" parent="1" vertex="1">
          <mxGeometry x="300" y="260" width="120" height="60" as="geometry" />
        </mxCell>
        <mxCell id="Fnj35fjm2CkwJjKrpzjC-11" value="Item Service" style="rounded=1;whiteSpace=wrap;html=1;fillColor=#ffe6cc;strokeColor=#d79b00;" parent="1" vertex="1">
          <mxGeometry x="880" y="240" width="120" height="60" as="geometry" />
        </mxCell>
        <mxCell id="Fnj35fjm2CkwJjKrpzjC-13" value="Item Service" style="rounded=1;whiteSpace=wrap;html=1;fillColor=#ffe6cc;strokeColor=#d79b00;" parent="1" vertex="1">
          <mxGeometry x="890" y="250" width="120" height="60" as="geometry" />
        </mxCell>
        <mxCell id="Fnj35fjm2CkwJjKrpzjC-14" value="Dispatch Service" style="rounded=1;whiteSpace=wrap;html=1;fillColor=#ffe6cc;strokeColor=#d79b00;" parent="1" vertex="1">
          <mxGeometry x="900" y="260" width="120" height="60" as="geometry" />
        </mxCell>
        <mxCell id="Fnj35fjm2CkwJjKrpzjC-16" style="edgeStyle=orthogonalEdgeStyle;rounded=0;orthogonalLoop=1;jettySize=auto;html=1;entryX=0.372;entryY=0.073;entryDx=0;entryDy=0;entryPerimeter=0;" parent="1" source="Fnj35fjm2CkwJjKrpzjC-7" edge="1">
          <mxGeometry relative="1" as="geometry">
            <mxPoint x="871.6399999999999" y="364.3799999999999" as="targetPoint" />
          </mxGeometry>
        </mxCell>
        <mxCell id="Fnj35fjm2CkwJjKrpzjC-20" style="edgeStyle=orthogonalEdgeStyle;rounded=0;orthogonalLoop=1;jettySize=auto;html=1;entryX=1;entryY=0.5;entryDx=0;entryDy=0;" parent="1" target="Fnj35fjm2CkwJjKrpzjC-14" edge="1">
          <mxGeometry relative="1" as="geometry">
            <mxPoint x="1080" y="360" as="sourcePoint" />
            <Array as="points">
              <mxPoint x="1080" y="290" />
            </Array>
          </mxGeometry>
        </mxCell>
        <mxCell id="Fnj35fjm2CkwJjKrpzjC-18" value="C" style="sketch=0;outlineConnect=0;fontColor=#232F3E;gradientColor=none;fillColor=#E7157B;strokeColor=none;dashed=0;verticalLabelPosition=bottom;verticalAlign=top;align=center;html=1;fontSize=12;fontStyle=0;aspect=fixed;pointerEvents=1;shape=mxgraph.aws4.queue;" parent="1" vertex="1">
          <mxGeometry x="1040" y="360" width="78" height="47" as="geometry" />
        </mxCell>
        <mxCell id="Fnj35fjm2CkwJjKrpzjC-24" style="edgeStyle=orthogonalEdgeStyle;rounded=0;orthogonalLoop=1;jettySize=auto;html=1;entryX=0.5;entryY=1;entryDx=0;entryDy=0;entryPerimeter=0;" parent="1" edge="1">
          <mxGeometry relative="1" as="geometry">
            <mxPoint x="730" y="640.0666666666666" as="sourcePoint" />
            <mxPoint x="390" y="660" as="targetPoint" />
            <Array as="points">
              <mxPoint x="680" y="640" />
              <mxPoint x="680" y="670" />
              <mxPoint x="390" y="670" />
            </Array>
          </mxGeometry>
        </mxCell>
        <mxCell id="Fnj35fjm2CkwJjKrpzjC-27" value="" style="edgeStyle=orthogonalEdgeStyle;rounded=0;orthogonalLoop=1;jettySize=auto;html=1;" parent="1" source="Fnj35fjm2CkwJjKrpzjC-25" target="xatf3qAbXo9EuCDJVr3o-6" edge="1">
          <mxGeometry relative="1" as="geometry" />
        </mxCell>
        <mxCell id="Fnj35fjm2CkwJjKrpzjC-25" value="C" style="sketch=0;outlineConnect=0;fontColor=#232F3E;gradientColor=none;fillColor=#E7157B;strokeColor=none;dashed=0;verticalLabelPosition=bottom;verticalAlign=top;align=center;html=1;fontSize=12;fontStyle=0;aspect=fixed;pointerEvents=1;shape=mxgraph.aws4.queue;" parent="1" vertex="1">
          <mxGeometry x="840" y="370" width="78" height="47" as="geometry" />
        </mxCell>
        <mxCell id="Fnj35fjm2CkwJjKrpzjC-30" value="Order Processing Service" style="rounded=1;whiteSpace=wrap;html=1;fillColor=#ffe6cc;strokeColor=#d79b00;" parent="1" vertex="1">
          <mxGeometry x="829" y="460" width="120" height="60" as="geometry" />
        </mxCell>
        <mxCell id="Fnj35fjm2CkwJjKrpzjC-31" value="Order Processing Service" style="rounded=1;whiteSpace=wrap;html=1;fillColor=#ffe6cc;strokeColor=#d79b00;" parent="1" vertex="1">
          <mxGeometry x="839" y="470" width="120" height="60" as="geometry" />
        </mxCell>
        <mxCell id="Fnj35fjm2CkwJjKrpzjC-37" style="edgeStyle=orthogonalEdgeStyle;rounded=0;orthogonalLoop=1;jettySize=auto;html=1;entryX=0.5;entryY=0;entryDx=0;entryDy=0;entryPerimeter=0;" parent="1" source="Fnj35fjm2CkwJjKrpzjC-31" target="Fnj35fjm2CkwJjKrpzjC-46" edge="1">
          <mxGeometry relative="1" as="geometry">
            <mxPoint x="790" y="610" as="targetPoint" />
          </mxGeometry>
        </mxCell>
        <mxCell id="Fnj35fjm2CkwJjKrpzjC-43" value="MASTER" style="text;html=1;align=center;verticalAlign=middle;resizable=0;points=[];autosize=1;strokeColor=none;fillColor=none;" parent="1" vertex="1">
          <mxGeometry x="725" y="670" width="70" height="30" as="geometry" />
        </mxCell>
        <mxCell id="Fnj35fjm2CkwJjKrpzjC-44" value="REPLICA" style="text;html=1;align=center;verticalAlign=middle;resizable=0;points=[];autosize=1;strokeColor=none;fillColor=none;" parent="1" vertex="1">
          <mxGeometry x="515" y="680" width="70" height="30" as="geometry" />
        </mxCell>
        <mxCell id="Fnj35fjm2CkwJjKrpzjC-45" value="REPLICA" style="text;html=1;align=center;verticalAlign=middle;resizable=0;points=[];autosize=1;strokeColor=none;fillColor=none;" parent="1" vertex="1">
          <mxGeometry x="350.57" y="680" width="70" height="30" as="geometry" />
        </mxCell>
        <mxCell id="Fnj35fjm2CkwJjKrpzjC-46" value="" style="verticalLabelPosition=bottom;html=1;verticalAlign=top;align=center;strokeColor=none;fillColor=#00BEF2;shape=mxgraph.azure.sql_database;" parent="1" vertex="1">
          <mxGeometry x="730.63" y="585" width="59.37" height="65" as="geometry" />
        </mxCell>
        <mxCell id="Fnj35fjm2CkwJjKrpzjC-48" value="" style="verticalLabelPosition=bottom;html=1;verticalAlign=top;align=center;strokeColor=none;fillColor=#00BEF2;shape=mxgraph.azure.sql_database;" parent="1" vertex="1">
          <mxGeometry x="357.44" y="580" width="63.13" height="75" as="geometry" />
        </mxCell>
        <mxCell id="Fnj35fjm2CkwJjKrpzjC-49" value="" style="verticalLabelPosition=bottom;html=1;verticalAlign=top;align=center;strokeColor=none;fillColor=#00BEF2;shape=mxgraph.azure.sql_database;" parent="1" vertex="1">
          <mxGeometry x="515" y="580" width="63.13" height="75" as="geometry" />
        </mxCell>
        <mxCell id="Fnj35fjm2CkwJjKrpzjC-50" style="edgeStyle=orthogonalEdgeStyle;rounded=0;orthogonalLoop=1;jettySize=auto;html=1;entryX=1;entryY=0.5;entryDx=0;entryDy=0;entryPerimeter=0;" parent="1" source="Fnj35fjm2CkwJjKrpzjC-14" target="Fnj35fjm2CkwJjKrpzjC-46" edge="1">
          <mxGeometry relative="1" as="geometry">
            <Array as="points">
              <mxPoint x="980" y="617" />
            </Array>
          </mxGeometry>
        </mxCell>
      </root>
    </mxGraphModel>
  </diagram>
</mxfile>
